<svg xmlns="http://www.w3.org/2000/svg" width="360.697" height="360.684" viewBox="0 0 360.697 360.684">
    <defs>
        <style>
            .prefix__cls-2{fill:#fff}
        </style>
    </defs>
    <g id="prefix__map" opacity="0.5" transform="translate(-22 68.604)">
        <g id="prefix__location" transform="translate(17.444 -73.163)">
            <path id="prefix__Контур_54" d="M138.888 67.072a44.832 44.832 0 1 0-44.834 44.838 44.831 44.831 0 0 0 44.834-44.838zm-79.046 0a34.214 34.214 0 1 1 34.216 34.22 34.212 34.212 0 0 1-34.216-34.22z" class="prefix__cls-2" data-name="Контур 54" transform="translate(90.849 35.973)"/>
            <path id="prefix__Контур_55" d="M364.9 358.041l-43.281-113.469a5.312 5.312 0 0 0-4.96-3.416h-81.916c.5-.816 1-1.608 1.5-2.427 31.519-52.184 47.381-97.832 47.153-135.659a98.493 98.493 0 1 0-196.987-.017c-.228 37.844 15.634 83.5 47.153 135.676.5.828 1 1.62 1.5 2.427H53.144a5.312 5.312 0 0 0-4.96 3.416L4.908 358.041a5.3 5.3 0 0 0 4.96 7.2h350.073a5.3 5.3 0 0 0 4.961-7.2zm-267.871-255a87.875 87.875 0 0 1 175.749.015c.455 75.432-70.053 168.45-87.875 190.755-17.821-22.3-88.333-115.289-87.875-190.77zm83.83 202.6a5.309 5.309 0 0 0 8.088 0 563.449 563.449 0 0 0 39.138-53.879H313l6.8 17.824-165.936 59.02-59.143-76.847h47a563.461 563.461 0 0 0 39.144 53.889zm-27.181 34.283h.03l98.992-35.186 38.394 49.887h-178.7zm-96.872-88.165H81.32l62.02 80.587-62.63 22.275H17.574zM304.5 354.625l-41.289-53.646 60.375-21.471 28.649 75.117z" class="prefix__cls-2" data-name="Контур 55"/>
        </g>
    </g>
</svg>
